<svg xmlns="http://www.w3.org/2000/svg" width="640" height="520" viewBox="0 0 640 520" role="img" aria-label="Themis illustration">
  <defs>
    <linearGradient id="bg" x1="0" y1="0" x2="1" y2="1">
      <stop offset="0" stop-color="#661514"/>
      <stop offset="1" stop-color="#490f0e"/>
    </linearGradient>
    <linearGradient id="cream" x1="0" y1="0" x2="0" y2="1">
      <stop offset="0" stop-color="#f7f0ea"/>
      <stop offset="1" stop-color="#e7c9c4"/>
    </linearGradient>
  </defs>
  <rect width="640" height="520" rx="16" fill="url(#bg)"/>
  <circle cx="500" cy="90" r="120" fill="#b9564e" opacity="0.22"/>
  <g transform="translate(320 90)" fill="none" stroke="url(#cream)" stroke-width="6" stroke-linecap="round">
    <!-- Scales of justice -->
    <line x1="0" y1="10" x2="0" y2="250"/>
    <line x1="-140" y1="60" x2="140" y2="60"/>
    <circle cx="0" cy="52" r="10" fill="url(#cream)" stroke="none"/>
    <path d="M-140 60 L-185 160 A45 30 0 0 0 -95 160 Z" fill="#e7c9c4" fill-opacity="0.20"/>
    <path d="M140 60 L95 160 A45 30 0 0 0 185 160 Z" fill="#e7c9c4" fill-opacity="0.20"/>
    <line x1="-140" y1="60" x2="-140" y2="90"/>
    <line x1="140" y1="60" x2="140" y2="90"/>
    <line x1="-60" y1="250" x2="60" y2="250"/>
  </g>
  <text x="320" y="410" text-anchor="middle" font-family="Georgia, serif" font-size="52" fill="#f7f0ea" font-weight="700">Themis</text>
  <text x="320" y="450" text-anchor="middle" font-family="Arial, sans-serif" font-size="18" fill="#e7c9c4" letter-spacing="2">LSAT PREP &amp; APPLICATION REVIEW</text>
</svg>
